<?xml version="1.0" standalone="no"?>
<!DOCTYPE svg PUBLIC "-//W3C//DTD SVG 20010904//EN"
 "http://www.w3.org/TR/2001/REC-SVG-20010904/DTD/svg10.dtd">
<svg version="1.0" xmlns="http://www.w3.org/2000/svg"
 width="473.000000pt" height="473.000000pt" viewBox="0 0 473.000000 473.000000"
 preserveAspectRatio="xMidYMid meet">

<g transform="translate(0.000000,473.000000) scale(0.100000,-0.100000)"
fill="#000000" stroke="none">
<path d="M2203 3206 c-101 -19 -167 -42 -252 -87 -158 -85 -260 -189 -342
-354 -140 -280 -111 -630 73 -874 242 -321 693 -421 1063 -236 167 83 276 192
360 361 65 129 89 249 82 409 -6 141 -25 220 -77 331 -81 169 -203 290 -375
374 -55 27 -131 56 -170 65 -97 23 -273 28 -362 11z m258 -300 c229 -49 379
-248 381 -506 2 -166 -46 -294 -147 -396 -171 -172 -447 -189 -638 -38 -187
147 -245 461 -127 693 98 195 311 293 531 247z"/>
<path d="M2295 2595 c-84 -22 -155 -116 -155 -205 0 -75 60 -169 127 -197 52
-21 143 -17 194 10 62 33 109 112 109 184 0 105 -67 189 -170 212 -53 12 -43
13 -105 -4z"/>
<path d="M760 3168 c-11 -24 -108 -243 -214 -488 l-194 -445 -119 -5 -120 -5
59 -138 59 -139 -49 -102 c-55 -111 -143 -250 -170 -266 -12 -6 65 -9 236 -10
l253 0 -15 22 c-30 42 -15 170 34 301 l21 57 200 0 c115 0 199 4 199 9 0 5
-25 68 -56 140 l-56 131 -84 0 -84 0 16 38 c9 20 38 100 64 176 26 77 49 135
52 130 3 -5 18 -47 33 -94 15 -47 83 -218 150 -380 68 -162 128 -320 133 -350
11 -57 4 -119 -17 -157 l-12 -23 298 0 c267 1 295 2 265 15 -46 20 -125 104
-171 183 -35 59 -320 679 -574 1247 -53 118 -91 191 -101 193 -10 2 -23 -12
-36 -40z"/>
<path d="M3060 3205 c0 -2 16 -12 35 -21 47 -22 127 -111 169 -187 18 -34 172
-369 341 -744 272 -604 311 -683 330 -683 19 0 31 22 90 159 43 102 66 168 63
183 -3 13 -107 260 -231 549 -204 474 -257 610 -257 659 0 9 9 32 19 53 l19
37 -289 0 c-159 0 -289 -2 -289 -5z"/>
<path d="M4211 3195 c27 -15 49 -60 49 -99 0 -51 -36 -150 -150 -411 -66 -152
-120 -284 -120 -294 1 -24 144 -358 154 -361 6 -1 103 211 216 472 248 569
249 572 338 670 l34 38 -273 0 c-244 -1 -271 -2 -248 -15z"/>
</g>
</svg>
